<?xml version="1.0" encoding="UTF-8" standalone="no"?>
<!-- Created with Inkscape (http://www.inkscape.org/) -->

<svg
   xmlns:dc="http://purl.org/dc/elements/1.1/"
   xmlns:cc="http://creativecommons.org/ns#"
   xmlns:rdf="http://www.w3.org/1999/02/22-rdf-syntax-ns#"
   xmlns:svg="http://www.w3.org/2000/svg"
   xmlns="http://www.w3.org/2000/svg"
   xmlns:sodipodi="http://sodipodi.sourceforge.net/DTD/sodipodi-0.dtd"
   xmlns:inkscape="http://www.inkscape.org/namespaces/inkscape"
   version="1.1"
   id="svg4485"
   width="545"
   height="363"
   viewBox="0 0 545 363"
   sodipodi:docname="001.svg"
   inkscape:export-filename="C:\Users\a1801996\Desktop\001.png"
   inkscape:export-xdpi="96"
   inkscape:export-ydpi="96"
   inkscape:version="0.92.1 r15371">
  <metadata
     id="metadata4491">
    <rdf:RDF>
      <cc:Work
         rdf:about="">
        <dc:format>image/svg+xml</dc:format>
        <dc:type
           rdf:resource="http://purl.org/dc/dcmitype/StillImage" />
        <dc:title></dc:title>
      </cc:Work>
    </rdf:RDF>
  </metadata>
  <defs
     id="defs4489">
    <inkscape:path-effect
       effect="bspline"
       id="path-effect4525"
       is_visible="true"
       weight="33.333333"
       steps="2"
       helper_size="0"
       apply_no_weight="true"
       apply_with_weight="true"
       only_selected="false" />
    <inkscape:path-effect
       effect="bspline"
       id="path-effect4521"
       is_visible="true"
       weight="33.333333"
       steps="2"
       helper_size="0"
       apply_no_weight="true"
       apply_with_weight="true"
       only_selected="false" />
    <inkscape:path-effect
       effect="bspline"
       id="path-effect4517"
       is_visible="true"
       weight="33.333333"
       steps="2"
       helper_size="0"
       apply_no_weight="true"
       apply_with_weight="true"
       only_selected="false" />
    <inkscape:path-effect
       effect="bspline"
       id="path-effect4513"
       is_visible="true"
       weight="33.333333"
       steps="2"
       helper_size="0"
       apply_no_weight="true"
       apply_with_weight="true"
       only_selected="false" />
    <inkscape:path-effect
       effect="bspline"
       id="path-effect4509"
       is_visible="true"
       weight="33.333333"
       steps="2"
       helper_size="0"
       apply_no_weight="true"
       apply_with_weight="true"
       only_selected="false" />
    <inkscape:path-effect
       effect="bspline"
       id="path-effect4505"
       is_visible="true"
       weight="33.333333"
       steps="2"
       helper_size="0"
       apply_no_weight="true"
       apply_with_weight="true"
       only_selected="false" />
    <inkscape:path-effect
       effect="bspline"
       id="path-effect4501"
       is_visible="true"
       weight="33.333333"
       steps="2"
       helper_size="0"
       apply_no_weight="true"
       apply_with_weight="true"
       only_selected="false" />
    <inkscape:path-effect
       effect="bspline"
       id="path-effect4497"
       is_visible="true"
       weight="33.333333"
       steps="2"
       helper_size="0"
       apply_no_weight="true"
       apply_with_weight="true"
       only_selected="false" />
  </defs>
  <sodipodi:namedview
     pagecolor="#ffffff"
     bordercolor="#666666"
     borderopacity="1"
     objecttolerance="10"
     gridtolerance="10"
     guidetolerance="10"
     inkscape:pageopacity="0"
     inkscape:pageshadow="2"
     inkscape:window-width="1280"
     inkscape:window-height="706"
     id="namedview4487"
     showgrid="false"
     inkscape:zoom="0.70710678"
     inkscape:cx="218.52536"
     inkscape:cy="209.93221"
     inkscape:window-x="-8"
     inkscape:window-y="-8"
     inkscape:window-maximized="1"
     inkscape:current-layer="svg4485"
     inkscape:pagecheckerboard="true" />
  <path
     style="fill:#000000;fill-opacity:1;stroke:none;stroke-width:4.5;stroke-opacity:0;stroke-miterlimit:4;stroke-dasharray:none"
     d="m 243.71722,354.32464 c -5.33941,-0.51963 -89.46784,-11.08111 -101.84688,-12.78586 -14.22737,-1.95928 -27.11037,-4.1009 -30.65625,-5.09617 l -2.38438,-0.66926 0.0196,-81.93505 c 0.0209,-87.20968 -0.0983,-84.00792 3.26172,-87.6228 2.86451,-3.08176 6.57957,-4.64272 50.63056,-21.2734 41.99991,-15.85633 42.54163,-16.15818 43.02532,-23.97411 0.14452,-2.33529 -0.21558,-11.91005 -0.80022,-21.27724 -2.29557,-36.780169 -2.7258,-48.559073 -1.87709,-51.391825 0.98379,-3.283598 6.01105,-8.373781 20.19012,-20.442861 12.54868,-10.681304 18.95425,-15.564183 21.13618,-16.111811 3.36756,-0.845205 7.11997,2.179662 31.6607,25.522101 33.51777,31.881156 63.73702,61.375656 67.11835,65.508636 6.58747,8.05185 7.6377,11.6156 15.35291,52.09701 1.92808,10.11656 3.97066,19.77328 4.53905,21.45938 1.70411,5.05508 4.8908,9.13277 19.96473,25.54687 38.87949,42.33613 38.43796,41.78448 40.07709,50.07188 1.42303,7.19482 7.59162,64.28958 7.59162,70.26599 0,6.93183 -3.37416,9.09749 -18.39375,11.80583 -21.90853,3.95055 -117.88339,17.27377 -142.38125,19.76534 -9.2188,0.93761 -19.87252,1.15587 -26.22813,0.53735 z m 56.69509,-36.94352 c 9.6964,-1.42659 11.26841,-1.96335 12.60648,-4.30442 0.97573,-1.70712 0.94821,-47.11229 -0.0423,-69.82264 -0.65188,-14.94582 -0.59094,-14.82048 -9.35318,-19.23965 -6.93201,-3.49612 -14.26668,-5.59826 -19.92203,-5.70972 l -3.87781,-0.0764 0.0992,20.4375 c 0.1256,25.87741 1.52232,70.48508 2.34428,74.86993 0.34421,1.83627 0.9691,3.75228 1.38865,4.25781 1.0639,1.28192 6.07963,1.15849 16.7567,-0.41237 z m -100.69559,-1.22318 c 0.9918,-0.81345 1.66273,-2.49073 2.11195,-5.27969 0.3621,-2.24812 1.12226,-23.3576 1.68923,-46.90993 0.82813,-34.40124 0.86305,-43.17214 0.17758,-44.60072 -1.19931,-2.49946 -5.16877,-3.1677 -13.19434,-2.22119 -7.37411,0.86967 -14.3979,3.22306 -20.90129,7.00316 -6.31592,3.67114 -9.17298,6.32695 -9.99667,9.29254 -0.97253,3.50148 -0.94747,75.50563 0.0273,78.30174 0.40087,1.14993 1.24392,2.32363 1.87344,2.60821 1.67859,0.75882 23.2946,2.82448 30.53318,2.9178 5.0041,0.0645 6.51138,-0.15372 7.67966,-1.11192 z m 164.28607,-3.60062 c 0.71581,-0.38309 1.47781,-1.39913 1.69335,-2.25788 0.67551,-2.69146 -3.34628,-53.00778 -4.53854,-56.78127 -0.95494,-3.02238 -7.84956,-9.19912 -13.21869,-11.84234 -3.49202,-1.71911 -5.39393,-2.21405 -8.70148,-2.2644 l -4.23271,-0.0644 -0.21183,3.33869 c -0.22638,3.56791 3.02627,62.36631 3.68828,66.67325 0.72013,4.6851 1.20976,4.8435 13.4162,4.3403 5.94217,-0.24496 11.38961,-0.75882 12.10542,-1.14192 z m 25.67224,-1.51182 c 1.05433,-0.83535 1.11158,-10.50918 0.17235,-29.12037 -0.93999,-18.62611 -1.17786,-20.32955 -3.08572,-22.0977 -2.39334,-2.21807 -8.72283,-5.11587 -12.22185,-5.59546 l -3.08821,-0.42329 v 4.17232 c 0,5.59679 2.5609,41.36925 3.42107,47.78788 0.42212,3.14986 1.08788,5.41024 1.73595,5.89388 1.24361,0.92807 11.74194,0.43213 13.06641,-0.61726 z m 21.55904,-0.47486 c 1.45989,-0.33865 2.91391,-1.02111 3.23115,-1.51656 0.31725,-0.49546 0.50232,-10.09662 0.41128,-21.33592 l -0.16553,-20.43509 -3.40625,-1.85069 c -3.7311,-2.02719 -8.22517,-2.98247 -10.55385,-2.24338 -1.47453,0.468 -1.4865,0.59107 -1.04959,10.79695 0.87787,20.50659 1.74481,35.12854 2.14454,36.17024 0.46864,1.22122 5.04033,1.42304 9.38825,0.41445 z m -70.0157,-175.05737 c -0.2582,-8.46175 -0.72302,-16.68033 -1.03293,-18.2635 -1.3346,-6.81758 -16.10436,-22.84531 -19.25684,-20.89698 -0.52938,0.32718 -0.61444,3.71065 -0.28757,11.43878 0.67247,15.89913 1.72881,32.59438 2.14655,33.9258 0.35503,1.13153 8.80962,6.36253 14.14205,8.74993 4.87223,2.18137 4.81743,2.37245 4.28874,-14.95403 z m -39.90608,-6.97874 c 0.81313,-3.01974 0.62456,-9.15187 -1.09653,-35.65628 -1.0975,-16.90138 -1.44032,-19.69708 -2.72286,-22.20462 -1.57772,-3.08466 -14.10646,-15.737995 -18.22916,-18.410441 -9.21487,-5.973335 -10.95901,-5.214497 -10.36114,4.507911 0.20741,3.372682 0.68981,12.56996 1.07201,20.4384 1.00279,20.64447 1.87155,29.42558 3.15726,31.9123 1.28374,2.48289 4.41946,5.50815 14.8666,14.3429 10.9402,9.2517 12.07174,9.68259 13.31382,5.06983 z"
     id="path4533"
     inkscape:connector-curvature="0"
     inkscape:export-xdpi="96"
     inkscape:export-ydpi="96" />
</svg>
